<?xml version="1.0" encoding="UTF-8" standalone="no"?>
<svg width="332px" height="173px" viewBox="0 0 332 173" version="1.1" xmlns="http://www.w3.org/2000/svg" xmlns:xlink="http://www.w3.org/1999/xlink" xmlns:sketch="http://www.bohemiancoding.com/sketch/ns">
    <!-- Generator: Sketch 3.4 (15575) - http://www.bohemiancoding.com/sketch -->
    <title>Page 1</title>
    <desc>Created with Sketch.</desc>
    <defs>
        <path id="path-1" d="M0,0.001 L331.676,0.001 L331.676,173 L0,173"/>
    </defs>
    <g id="Page-1" stroke="none" stroke-width="1" fill="none" fill-rule="evenodd" sketch:type="MSPage">
        <g sketch:type="MSLayerGroup">
            <path d="M39.5227,93.2041 C39.6617,93.9801 40.1747,94.5151 39.6957,95.1431 C39.5837,95.2901 39.7797,95.6721 40.1237,95.6291 C40.5787,95.5731 40.7627,95.1891 40.8407,94.8151 C41.0137,93.9741 40.6317,93.4671 39.5227,93.2041 M8.2287,119.1861 C7.9437,118.3671 7.0747,118.6301 6.4657,118.4021 C6.1597,118.2871 5.7377,118.4541 5.8817,118.8771 C6.1637,119.7041 7.0877,119.4801 7.6857,119.8101 C8.0517,120.0121 8.2057,119.6131 8.2287,119.1861 M49.7487,76.9391 C49.1807,76.9851 49.1327,77.3941 49.2387,77.7931 C49.3537,78.2281 49.5197,78.7811 50.0547,78.7781 C50.6547,78.7751 50.7047,78.2061 50.6887,77.7481 C50.6697,77.1801 50.2497,76.9921 49.7487,76.9391 M8.9677,107.1511 C8.6867,106.7321 8.7057,106.0271 8.1647,106.3851 C7.4797,106.8371 6.6857,107.3131 6.5877,108.2741 C6.5627,108.5181 6.9957,108.8681 7.0477,108.7301 C7.3867,107.8401 8.4137,107.7341 8.9677,107.1511 M12.7327,119.3861 C12.2157,118.7231 11.4737,118.8401 10.7947,118.8811 C10.1977,118.9171 9.5437,119.0661 9.7407,119.9181 C9.9087,120.6401 10.5427,120.7561 11.1367,120.6821 C11.8827,120.5901 12.4687,120.1921 12.7327,119.3861 M30.1547,121.1991 C29.7877,120.5381 29.2177,120.5101 28.7607,120.3951 C28.3387,120.2881 27.7337,119.6091 27.4357,120.3881 C27.1497,121.1341 27.0087,122.0001 27.0777,122.7891 C27.1097,123.1551 27.9177,123.3491 28.1327,122.7651 C28.4857,121.8091 29.3677,121.5771 30.1547,121.1991 M37.1067,119.6391 C37.1167,120.1891 37.4397,120.7291 36.9847,121.0361 C36.5377,121.3381 35.8587,121.4951 36.5147,122.1211 C37.0987,122.6781 37.9637,122.5141 38.5637,122.2291 C39.3957,121.8341 38.4617,121.4131 38.3767,120.9871 C38.2867,120.5421 38.2187,120.0921 38.1657,119.6411 C38.1087,119.1611 37.9877,118.6121 37.4387,118.6581 C36.6797,118.7221 37.1327,119.3501 37.1067,119.6391 M7.0787,75.1431 C7.0387,74.6891 6.7817,74.5111 6.4137,74.6461 C5.3037,75.0551 4.0197,75.3961 3.7727,76.7381 C3.6467,77.4161 4.4847,77.6711 5.0687,77.5801 C6.4257,77.3691 6.5517,76.0651 7.0787,75.1431 M46.6387,68.4531 C46.6047,69.1321 47.3097,68.9011 47.5887,69.2751 C48.3047,70.2371 49.3727,69.9061 50.1307,69.4631 C50.7907,69.0781 50.7447,67.8841 50.3127,67.5331 C49.6417,66.9861 48.6047,66.8731 47.9617,67.8731 C47.6367,68.3801 46.9037,67.9091 46.6387,68.4531 M41.3227,124.8471 C40.4577,125.1881 39.3397,125.3801 38.5567,125.9971 C37.4407,126.8771 38.7637,127.5641 39.1127,128.2751 C39.3367,128.7291 40.0197,128.8231 40.1737,128.2401 C40.4457,127.2141 41.1517,126.5851 41.8157,125.8771 C41.9687,125.7131 42.0607,125.4141 42.0427,125.1891 C42.0167,124.8771 41.7127,124.8431 41.3227,124.8471 M11.4807,71.4271 C11.6267,70.0131 15.4877,70.8471 13.4477,68.0771 C13.1177,67.6301 13.5327,66.6721 12.4967,66.6711 C13.1637,68.0801 10.0277,67.6211 11.2187,69.2511 C11.7297,69.9501 11.2437,70.6201 11.4807,71.4271 M48.8707,73.8781 C48.2577,73.0901 49.3237,72.0111 48.5347,71.9661 C47.1377,71.8881 45.3517,71.7341 44.3587,72.1541 C42.5807,72.9061 41.2857,74.8011 39.5687,76.4261 C42.5097,76.9741 43.8677,74.2031 46.3687,74.1821 C47.2567,74.1741 47.2487,73.2361 48.8707,73.8781 M25.4917,119.6081 C30.4347,119.5631 34.4007,117.0841 35.3487,112.7991 C35.8237,110.6521 36.9137,108.6661 36.7197,106.2131 C36.5887,104.5631 37.3277,102.6841 37.2757,100.8531 C37.3787,100.0041 37.5137,99.1581 37.5777,98.3061 C38.0657,91.8821 37.6397,85.4571 37.6157,79.0321 C37.6127,78.3111 36.9587,77.3141 38.1307,76.8281 C38.1727,76.8111 38.2497,76.8741 38.3097,76.8991 C38.2197,76.9131 38.1167,76.9621 38.0397,76.9361 C37.6447,76.8021 37.6237,76.4291 37.6297,76.1181 C37.6787,73.6941 36.8507,71.4261 36.3957,69.0931 C35.5447,64.7371 33.0387,61.8481 28.6937,60.6511 C28.2787,60.5371 27.6297,60.5871 27.5997,60.0071 C27.5337,58.7101 27.0027,59.5501 26.5027,59.6621 C24.0247,60.2131 21.5047,59.8271 19.0037,59.8991 C18.2667,59.9211 17.9797,58.6271 17.9237,58.8101 C17.5397,60.0661 15.5657,59.6431 15.6307,61.5791 C15.8477,68.0651 15.7247,74.5631 15.7087,81.0571 C15.7057,82.2031 16.0627,83.4961 14.6757,84.2231 C14.4797,84.3251 14.2627,84.7331 14.5977,84.8281 C16.4517,85.3511 15.6697,86.8961 15.7057,87.9471 C15.8487,92.1141 15.8017,96.2871 15.8257,100.4571 C15.6547,102.3131 15.6317,104.1701 15.7937,106.0281 C15.7397,109.7711 15.6967,113.5151 15.6147,117.2581 C15.6057,117.6971 15.8927,118.2851 15.1817,118.5451 C12.8557,119.3951 12.7627,119.7791 14.5997,121.6031 C14.4327,119.8841 15.9537,120.4041 16.6557,119.8081 C19.2217,119.7061 21.7977,119.9871 24.3567,119.6151 C24.7407,120.5501 25.1157,119.9401 25.4917,119.6081 M53.2587,104.4401 C52.9697,109.6881 52.1807,114.8341 50.1357,119.7241 C47.0927,127.0031 41.7107,131.0451 33.7707,131.5511 C23.0457,132.2341 12.3067,131.7761 1.5757,131.9471 C0.1727,131.9691 0.3527,131.1521 0.3537,130.2821 C0.3577,123.5861 0.3547,116.8911 0.3457,110.1951 C0.3447,109.4691 0.2877,108.7421 0.2577,108.0161 C0.4187,101.2511 0.4057,94.4871 0.2487,87.7221 C0.2987,86.6031 0.3487,85.4851 0.3887,84.5771 C3.3057,83.6061 4.4107,86.9101 6.6897,87.2601 C7.4037,86.4551 6.2087,84.6331 7.5197,84.9331 C9.9057,85.4781 8.8167,83.6651 9.5727,82.9751 C8.4367,82.7871 8.0397,83.8961 7.1747,83.7371 C7.3387,82.0831 5.6937,81.3041 5.3157,79.8971 C5.2327,79.5881 4.7617,79.8581 4.4447,79.9441 C1.4347,80.7561 0.5077,80.0961 0.2057,76.9741 C0.3817,72.8621 0.3617,68.7511 0.2107,64.6391 L0.2107,64.2451 C0.3747,59.0711 0.3747,53.8971 0.2197,48.7221 C0.3167,47.5791 1.1957,47.8911 1.8487,47.8891 C6.2477,47.8711 10.6467,47.8731 15.0447,47.8831 C17.9407,47.8891 20.8357,47.9181 23.7317,47.9371 C23.9307,48.8261 23.5547,49.9031 24.5457,50.5941 C25.5677,49.7931 24.1937,48.7071 24.9617,47.9421 C25.3527,47.9341 25.7427,47.9261 26.1337,47.9191 C28.8757,48.3401 31.6897,47.9081 34.4087,48.6111 C35.7477,48.9581 37.8787,48.9261 38.2657,49.7311 C39.1347,51.5381 40.4557,49.8851 41.3527,50.6531 C42.3547,51.5111 43.7377,51.7541 44.8637,52.5501 C48.4387,55.0781 50.3397,58.6441 51.6467,62.6491 C52.2497,65.7791 53.0917,68.8891 53.3677,72.0481 C53.5377,73.9891 54.8687,76.3241 52.2907,78.0421 C53.2637,78.2221 54.0277,78.1951 53.9747,79.4681 C53.6317,87.7881 53.8667,96.1261 53.2587,104.4401" id="Fill-1" fill="#FEFEFE" sketch:type="MSShapeGroup"/>
            <path d="M166.8989,121.6567 C166.5529,121.6887 166.2829,121.7897 166.2529,122.1867 C166.2269,122.5197 166.4499,122.6247 166.7079,122.6377 C167.0309,122.6547 167.3249,122.5867 167.3229,122.1557 C167.3219,121.8557 167.1439,121.7267 166.8989,121.6567 M118.5189,64.7247 C118.6409,65.4077 118.7639,65.8967 118.8059,66.3937 C118.8319,66.7097 118.7089,67.0737 119.1399,67.1707 C119.5819,67.2687 119.6499,66.9287 119.7249,66.5977 C119.9369,65.6657 119.8549,64.9117 118.5189,64.7247 M125.6119,106.3747 C125.0119,106.8987 124.1899,107.2627 123.9579,108.1537 C123.9069,108.3507 124.1519,108.7867 124.4219,108.6237 C125.1029,108.2117 125.7439,107.7147 126.3199,107.1667 C126.4029,107.0877 126.1989,106.4077 125.6119,106.3747 M148.2669,82.9127 C147.8089,82.9827 147.2499,83.0917 147.5099,83.5757 C147.7659,84.0517 147.6649,85.0637 148.6129,84.8307 C148.9189,84.7557 149.6689,84.7317 149.5499,84.0637 C149.4249,83.3697 149.0169,82.8747 148.2669,82.9127 M138.2519,84.0347 C137.9049,84.2457 137.2919,84.4417 137.6069,84.8097 C138.2049,85.5087 139.0279,86.0147 139.7579,86.6017 C139.9449,86.2677 140.3239,85.9077 140.2829,85.6027 C140.1329,84.4677 139.0429,84.4707 138.2519,84.0347 M130.1809,119.2907 C129.0839,119.0207 128.0899,118.4657 127.2409,119.4937 C126.9929,119.7937 127.1459,120.3397 127.5519,120.5007 C128.7299,120.9667 129.5269,120.4557 130.1809,119.2907 M145.1429,89.9957 C144.6659,91.9287 145.6689,93.2627 146.2829,94.6807 C146.2319,93.1387 146.8999,91.4387 145.1429,89.9957 M154.7539,118.6737 C153.6489,119.4437 155.3939,120.7177 154.0239,121.2797 C153.6979,121.4137 153.4159,121.6017 153.6919,121.9937 C154.2109,122.7297 154.9429,122.5497 155.6599,122.4117 C156.0019,122.3457 156.4709,122.0507 156.2379,121.8477 C155.2719,121.0087 155.8469,119.5007 154.7539,118.6737 M124.6869,74.3577 C123.3319,74.7167 122.4729,75.1597 121.7419,75.7897 C121.3489,76.1297 120.6049,76.5347 121.1669,77.1957 C121.5949,77.7007 122.2389,77.8677 122.9499,77.5117 C124.1309,76.9187 124.1159,75.7377 124.6869,74.3577 M144.9669,88.4217 C144.6349,87.3137 145.8999,86.0077 144.7149,85.2217 C144.2859,84.9367 142.8169,85.2867 142.6679,85.6737 C141.9189,87.6167 144.1999,87.4107 144.9669,88.4217 M159.5099,124.6557 C158.1369,125.1327 157.1609,125.4537 156.1989,125.8127 C155.6989,125.9997 155.4899,126.3357 155.7329,126.8977 C156.0159,127.5527 156.1009,128.3397 156.8899,128.6307 C157.2429,128.7607 157.5859,128.5917 157.6339,128.2097 C157.7879,126.9667 158.8779,126.2337 159.5099,124.6557 M157.0839,76.2987 C157.4489,76.4697 157.6109,76.6037 157.7789,76.6137 C160.0899,76.7537 161.2129,74.0697 163.7779,74.2297 C164.7169,74.2887 164.7799,73.2847 165.9819,73.6577 C166.6079,71.6677 165.4419,71.9197 164.2029,72.2417 C163.7709,72.3547 163.1509,72.8057 162.9189,72.4327 C162.0589,71.0457 161.5309,72.1627 160.9969,72.6347 C159.7199,73.7667 158.5009,74.9637 157.0839,76.2987 M128.8069,71.4167 C129.3969,71.0657 129.9859,70.7147 130.7729,70.2447 C130.7729,74.2217 130.8269,78.0337 130.7469,81.8427 C130.7139,83.3747 131.5139,84.1747 132.6249,84.9867 C133.5969,85.6967 134.2019,85.6877 134.3399,84.4427 C134.4329,83.6017 134.9289,83.7327 135.4299,83.7127 C137.8099,83.6187 140.1929,83.4227 142.5699,83.4717 C144.7089,83.5147 146.5589,82.7337 148.3639,81.8147 C149.7859,81.0897 151.1079,79.6597 151.4099,78.4177 C152.1419,75.4097 152.1679,72.2247 152.4159,69.1067 C152.4889,68.1807 152.7209,66.8467 152.2339,66.3907 C151.4169,65.6277 150.9459,64.7517 150.4339,63.8497 C149.0269,61.3717 146.6229,59.6627 144.1129,59.6007 C140.5329,59.5127 136.9199,59.1387 133.3059,59.5187 C130.6709,59.7967 130.6819,59.6207 130.6459,62.3637 C130.6229,64.1177 131.0379,65.9397 129.8699,67.5467 C129.4769,68.0867 128.0849,67.7997 128.5289,68.8427 C128.9139,69.7487 128.6539,70.6107 128.8329,71.4677 C128.7509,71.4447 128.6689,71.4217 128.5869,71.3987 C128.5819,71.4507 128.5769,71.5027 128.5719,71.5547 C128.6499,71.5087 128.7289,71.4627 128.8069,71.4167 M130.9339,108.7037 C130.9049,115.8537 130.8359,123.0037 130.8829,130.1527 C130.8919,131.5697 130.6449,132.0857 129.0829,132.0357 C125.0469,131.9077 121.0049,131.9627 116.9659,132.0137 C115.9569,132.0267 115.5989,131.7917 115.6209,130.7077 C115.6919,127.1327 115.3799,123.5297 115.7239,119.9877 C116.0249,116.8907 115.4679,113.8627 115.6299,110.8027 C115.6649,109.8857 115.6919,108.9677 115.7369,108.0507 C115.7649,107.4737 115.7159,106.4287 115.8749,106.3947 C117.4899,106.0467 116.6239,104.8447 116.2849,104.5387 C115.4979,103.8287 115.6129,103.0447 115.6069,102.2197 C115.5729,96.9917 115.5459,91.7627 115.5159,86.5347 C115.5439,85.4767 115.5479,84.4177 115.6069,83.3607 C115.6449,82.6837 115.3169,81.8557 116.2959,81.5007 C117.1909,81.1757 118.0469,80.9197 118.9299,81.5827 C119.2789,81.8457 119.5779,82.6567 120.1819,81.9957 C120.5509,81.5917 120.9049,81.5677 121.1289,81.9407 C121.4219,82.4297 120.9049,82.6587 120.5659,82.7777 C119.4179,83.1787 118.2489,83.5177 117.0879,83.8797 C119.1619,84.2887 121.0499,84.8527 122.3479,86.6177 C122.4479,86.7537 122.7239,86.7447 122.8879,86.8507 C123.9449,87.5337 124.4729,87.3567 124.3549,85.9997 C124.3169,85.5657 124.2399,84.7827 124.8599,84.9787 C127.1619,85.7077 126.3789,83.8667 126.8469,82.9837 C126.2049,82.7787 125.9889,83.1817 125.6899,83.4137 C125.3479,83.6797 125.0659,84.1027 124.5339,83.8937 C124.3159,83.3847 124.8739,82.7757 124.3839,82.3647 C123.1179,81.3017 122.4909,78.9217 120.0369,80.2017 C119.8389,80.3047 119.4059,80.2777 119.2699,80.1347 C118.1009,78.8927 116.9409,79.3287 115.5339,80.4677 L115.5339,70.1917 C115.5769,62.7677 115.6209,55.3427 115.6649,47.9177 C120.0239,47.9287 124.3829,47.9397 128.7429,47.9507 C128.8359,48.1787 128.9289,48.4067 129.0219,48.6347 C129.1029,48.4077 129.1839,48.1807 129.2649,47.9537 C136.7489,47.9427 144.2399,47.4927 151.7099,48.3227 C153.1499,49.3457 155.5029,48.6387 156.3579,50.7767 C156.4579,51.0247 156.7259,51.0157 156.8289,50.8747 C157.6699,49.7247 158.3769,50.7847 159.0029,51.0807 C163.7449,53.3227 166.1249,57.3757 167.3749,62.2557 C167.4279,62.5447 167.4799,62.8347 167.5329,63.1247 C167.6239,63.4967 167.7159,63.8697 167.8079,64.2427 C167.8429,64.5097 167.8779,64.7757 167.9129,65.0427 C167.8239,65.6037 167.9649,66.1247 168.1899,66.6317 C168.2049,67.0337 168.2209,67.4357 168.2359,67.8377 C166.5259,65.9447 165.3869,68.1947 163.9699,68.4247 C165.1359,70.5117 166.6219,70.2367 168.2379,69.0037 C168.0639,69.9277 168.3949,71.0327 167.2079,71.5857 C166.9219,71.7197 166.8009,72.2337 167.1819,72.3947 C168.4199,72.9187 167.7869,73.8797 167.6529,74.5917 C167.4599,75.6137 166.8269,76.5577 166.6689,77.5797 C165.9409,82.2827 163.0269,85.1977 159.0019,87.2607 C158.2839,87.6287 157.4119,87.7187 156.8189,88.3947 C165.6519,93.2107 165.7299,93.2807 167.1899,97.6507 C167.2789,98.5847 167.3679,99.5177 167.4569,100.4507 C167.4599,100.6847 167.4629,100.9187 167.4669,101.1537 C167.5759,101.7167 167.6849,102.2797 167.7939,102.8437 C167.8299,104.1727 167.8659,105.5017 167.9019,106.8307 C167.9449,110.4457 167.9339,114.0627 168.0539,117.6747 C168.1099,119.3567 168.0489,120.9717 167.2839,122.4957 C167.4609,122.5657 167.6369,122.6407 167.8129,122.7147 C168.4369,126.0077 169.5589,129.0737 171.9029,131.4747 C171.6859,132.1527 171.2189,131.9597 170.8669,131.9607 C165.6419,131.9727 160.4159,131.9187 155.1929,132.0047 C153.8519,132.0277 153.6869,131.4827 153.4209,130.3407 C151.7019,122.9687 152.4969,115.4697 152.1379,108.0317 C152.1099,107.4527 152.0279,106.8817 152.4829,106.3467 C152.9829,105.7587 152.4059,105.5887 151.9689,105.4237 C152.3139,104.3687 152.0349,103.3727 151.6239,102.4157 C150.1459,98.9727 148.3659,95.8557 144.0199,95.5917 C142.3049,95.4867 140.5899,95.3707 138.8819,95.1897 C138.1449,95.1117 137.2279,95.4857 136.7329,94.5777 C136.1859,93.5727 137.5259,93.3507 137.6359,92.3827 C135.7119,92.3917 135.9179,93.8397 135.8529,94.9987 C134.5819,94.6877 135.8109,93.6757 134.9999,93.0717 C134.2889,94.5697 133.2599,95.5377 131.4399,95.1737 C130.8649,95.0587 130.8429,95.7287 130.8459,96.2057 C130.8779,100.3717 130.9049,104.5377 130.9339,108.7037" id="Fill-3" fill="#FEFEFE" sketch:type="MSShapeGroup"/>
            <path d="M215.1774,72.9398 C215.1034,72.3098 214.6914,71.9078 214.0804,71.7938 C213.6354,71.7098 213.5244,72.1008 213.6804,72.4198 C213.9104,72.8898 213.6464,73.7178 214.5044,73.7528 C214.9584,73.7708 215.1724,73.4268 215.1774,72.9398 M175.2214,78.9578 C175.8194,78.9358 176.4114,78.7918 176.4604,78.0338 C176.4824,77.6888 176.1394,77.4118 175.7794,77.4978 C175.2104,77.6328 174.5134,77.7828 174.3534,78.4028 C174.2134,78.9438 174.8114,78.8898 175.2214,78.9578 M178.2834,107.3898 C178.5964,108.1388 177.2664,108.7478 178.2174,109.4938 C178.5664,109.7668 179.0874,109.6568 179.2704,109.2858 C179.7224,108.3648 179.0424,107.8778 178.2834,107.3898 M200.6984,120.6188 C200.3184,120.7098 199.9644,120.8778 200.0364,121.2578 C200.1974,122.0998 200.9314,122.3558 201.6354,122.4948 C202.0774,122.5828 202.1394,122.1138 202.0774,121.8048 C201.9254,121.0568 201.3224,120.7908 200.6984,120.6188 M181.9094,97.5118 C183.4274,95.6158 183.3844,95.4098 181.5664,94.5418 C182.0394,95.4078 182.0894,96.1768 181.9094,97.5118 M174.5684,85.4138 C174.2764,84.9818 174.0384,84.4108 173.2964,84.5128 C172.8994,84.5668 172.4584,84.6508 172.6464,85.1888 C172.8274,85.7078 172.9684,86.3818 173.7374,86.3198 C174.2024,86.2828 174.6164,86.0718 174.5684,85.4138 M215.5534,67.6758 C214.3484,67.2888 213.4364,67.3788 212.8084,68.2908 C212.5594,68.6518 212.9284,69.1238 213.2904,69.2258 C214.5664,69.5838 214.8754,68.5278 215.5534,67.6758 M181.0274,122.4268 C180.8464,121.9038 180.3734,121.4928 180.4174,120.8338 C180.4544,120.2708 180.4484,119.4438 179.6404,119.5838 C178.9974,119.6948 179.4124,120.4608 179.3994,120.9258 C179.3854,121.4128 179.3634,121.7858 178.8334,122.0208 C178.4424,122.1928 178.5454,122.5478 178.8094,122.8078 C179.2924,123.2808 179.9014,123.1378 180.4764,123.0988 C180.8514,123.0718 181.0374,122.8298 181.0274,122.4268 M177.1874,105.2378 C177.0084,103.8498 176.5044,102.7568 174.9274,102.6248 C174.5194,102.5908 173.8754,102.2438 173.8324,102.9338 C173.7994,103.4488 174.1394,104.4108 174.7264,104.1758 C176.0814,103.6308 176.2994,104.9198 177.1874,105.2378 M194.4914,122.9698 C193.9954,122.6548 194.1864,121.4398 193.2214,121.6278 C192.3214,121.8028 190.7594,122.0138 190.8974,123.0038 C191.0364,123.9998 192.8334,123.1218 193.6474,124.0028 C193.7954,124.1638 194.4314,123.6788 194.4914,122.9698 M186.1664,50.5328 C185.9884,49.9988 185.8324,49.2408 185.2914,49.3948 C184.0604,49.7438 183.4504,50.9548 182.6574,51.8538 C182.3854,52.1628 183.0914,52.7218 183.5054,52.6058 C184.6524,52.2828 185.5764,51.5858 186.1664,50.5328 M222.8204,111.9998 C221.5234,123.6838 215.7244,129.6578 203.4284,131.7528 C197.6344,132.7398 191.8214,132.6598 186.0974,131.1588 C184.4164,130.7188 182.7914,130.0598 181.1574,129.4558 C180.8734,129.3508 180.6684,129.0168 180.9034,128.6468 C181.4064,128.5768 181.8514,129.5488 182.4004,128.7248 C183.0674,127.7218 183.7444,126.7248 184.4784,125.6348 C180.8874,125.8978 180.2014,126.5258 180.9584,128.7008 C178.8994,128.2128 177.7404,126.5768 176.6124,125.0478 C172.8374,119.9298 171.2664,114.0558 171.0204,107.7738 C170.9844,106.8508 170.9494,105.9278 170.9144,105.0048 C171.0364,101.1728 171.1904,97.3408 171.2634,93.5078 C171.2944,91.9268 170.8624,90.2858 171.1594,88.7748 C171.5334,86.8698 171.2634,85.0448 171.2064,83.1838 C171.1884,82.5768 171.1114,81.9628 172.1044,82.1308 C173.4734,82.3628 173.6554,81.1488 173.7034,80.3568 C173.7584,79.4468 173.0924,78.7468 171.9974,78.9538 C171.6174,79.0248 171.1694,78.9818 171.3324,78.6268 C171.9034,77.3908 171.0644,76.3088 171.0934,75.1218 C171.1824,71.5528 171.0524,67.9798 171.0074,64.4088 C171.3654,63.2238 170.8134,61.9328 171.4264,60.7758 C171.5694,60.6708 171.7124,60.5658 171.8554,60.4608 C171.6974,60.3978 171.5384,60.3348 171.3794,60.2728 C170.7644,57.9118 171.4424,55.4868 171.0264,53.1168 C171.2454,51.7788 171.2644,50.4408 171.0304,49.1028 C171.1734,48.0108 172.0084,48.2508 172.6994,48.2498 C176.7424,48.2438 180.7864,48.3068 184.8264,48.2158 C186.1594,48.1858 186.4884,48.5998 186.4794,49.8778 C186.4264,57.3658 186.4324,64.8548 186.4744,72.3428 C186.4804,73.4438 186.1174,74.1968 185.3144,74.9178 C184.2174,75.9018 182.9424,76.7358 182.1004,78.0578 C183.8234,78.6348 184.8874,77.4528 186.4034,76.5318 C186.4034,85.6798 186.4334,94.4698 186.3894,103.2598 C186.3694,107.2038 186.9774,111.0408 188.0244,114.8218 C188.6974,117.2518 190.3134,118.8408 192.6964,119.5338 C195.9594,120.4818 199.2284,120.5358 202.4204,119.1568 C202.2554,120.2398 202.7514,121.2328 202.8444,122.2798 C202.8754,122.6238 202.9774,122.9878 203.3684,122.9888 C203.5904,122.9898 203.8744,122.7888 204.0274,122.5978 C204.8414,121.5738 203.6644,120.6578 203.8194,119.6018 C203.9094,118.9908 203.0484,119.1278 202.5374,119.1558 C205.7274,117.3228 207.3694,114.6118 207.4054,110.8898 C207.4274,108.6448 207.7074,106.4028 207.7434,104.1578 C207.8104,99.9258 207.7924,95.6918 207.7974,91.4588 C207.8024,87.2928 207.8434,83.1248 207.7734,78.9588 C207.7044,74.8548 207.9524,70.7548 207.8274,66.6468 C207.7714,64.8308 208.1044,62.8698 208.1114,61.1438 C208.1174,59.4348 208.1344,57.4348 207.6674,55.6248 C208.3304,54.8978 209.0834,55.4758 209.8044,55.4858 C209.2374,54.8038 208.1844,55.3288 207.6504,54.5938 C207.6944,52.8748 207.7684,51.1558 207.7694,49.4358 C207.7704,48.6768 207.8404,48.1688 208.8044,48.1838 C213.4394,48.2568 218.0744,48.2878 222.7104,48.3348 C222.7404,60.9278 222.7704,73.5218 222.8004,86.1158 C222.8014,86.3908 222.8014,86.6648 222.8014,86.9398 C222.8014,87.1958 222.8024,87.4518 222.8024,87.7068 C222.6084,88.9108 222.6344,90.1138 222.8014,91.3168 C222.6934,98.2118 222.5954,105.1058 222.8204,111.9998" id="Fill-5" fill="#FEFEFE" sketch:type="MSShapeGroup"/>
            <path d="M239.1952,48.995 C239.2312,48.959 239.2932,48.924 239.2952,48.886 C239.2972,48.848 239.2392,48.806 239.2082,48.766 C239.1722,48.802 239.1092,48.837 239.1072,48.875 C239.1052,48.913 239.1632,48.954 239.1952,48.995 M228.5782,64.916 C228.8672,65.889 228.5472,66.788 229.2402,67.432 C229.3942,67.575 229.7132,67.31 229.7732,67.032 C229.9692,66.117 229.7282,65.415 228.5782,64.916 M236.3002,107.641 C236.1952,107.134 236.0192,106.682 235.6952,106.809 C234.9112,107.117 234.1562,107.577 233.9632,108.498 C233.9012,108.797 234.4682,108.951 234.4962,108.889 C234.8522,108.105 235.8012,108.087 236.3002,107.641 M240.5142,119.367 C239.1422,119.356 238.0952,118.644 237.1662,119.724 C236.9222,120.007 236.9752,120.539 237.4012,120.743 C238.5722,121.304 239.3962,120.72 240.5142,119.367 M254.9442,90.181 C254.8102,92.014 255.5022,93.321 255.7512,94.711 C255.8032,95.001 255.8322,95.244 256.1712,95.16 C256.3302,95.12 256.5882,94.877 256.5642,94.793 C256.1512,93.342 256.8062,91.536 254.9442,90.181 M234.5792,74.358 C233.3382,75.069 232.4732,75.491 231.6952,76.035 C231.2172,76.369 230.7442,76.898 231.2782,77.535 C231.7052,78.044 232.2862,78.098 232.8972,77.794 C234.1522,77.168 234.2022,75.99 234.5792,74.358 M255.1302,88.634 C255.1302,87.986 255.0892,87.335 255.1462,86.693 C255.1772,86.337 255.6972,86.081 255.2542,85.611 C254.3982,84.705 253.6332,86.673 252.8122,85.647 C252.7522,85.946 252.6632,86.243 252.6362,86.545 C252.4872,88.204 254.4142,87.723 255.1302,88.634 M275.8902,74.063 C276.1282,72.111 276.1292,72.114 274.3342,72.495 C273.9472,72.577 273.3302,72.82 273.1972,72.665 C271.8802,71.126 271.2662,72.679 270.5052,73.268 C269.6722,73.912 268.9142,74.663 268.1812,75.422 C267.8102,75.806 266.8932,76.154 267.3852,76.76 C267.7972,77.267 268.8762,77.053 269.1662,76.541 C270.1892,74.736 272.7872,75.696 273.7642,73.707 C274.0972,73.029 275.1722,73.82 275.8902,74.063 M257.3502,83.341 C257.4472,83.645 257.5062,83.967 257.6482,84.248 C257.9432,84.831 258.3892,85.191 259.0832,84.923 C259.4732,84.774 259.4712,84.428 259.3482,84.104 C259.1302,83.528 258.8662,82.991 258.0732,83.226 C257.8222,83.3 257.5612,83.339 257.3042,83.394 C256.8522,82.875 257.4052,82.706 257.6632,82.557 C259.9552,81.232 260.6702,78.659 261.1852,76.577 C261.6392,74.741 261.4132,72.439 261.2932,70.34 C261.0702,66.444 259.3632,63.493 256.0602,61.444 C255.5612,61.134 254.9542,60.907 254.8152,60.246 C254.6002,59.216 254.1502,59.504 253.6402,60.004 C253.3252,60.313 252.9502,60.331 252.5362,60.273 C249.3212,59.829 246.0982,59.761 242.8542,59.901 C241.6472,59.952 241.2432,60.24 241.2872,61.47 C241.3762,63.929 241.3142,66.393 241.3142,68.98 C240.2612,68.516 241.0032,67.408 240.2822,67.131 C238.4052,68.217 238.4372,69.883 238.7902,71.686 C239.7602,71.551 240.1452,70.269 241.2322,70.333 C241.2322,74.822 241.2252,79.226 241.2362,83.63 C241.2392,84.924 242.6832,85.973 243.8732,85.516 C245.8162,84.77 247.5872,84.956 249.1122,86.417 C249.5662,86.852 250.0612,86.95 250.1062,86.355 C250.2402,84.573 251.6132,84.743 252.6722,84.695 C254.3682,84.618 255.6282,83.2 257.3502,83.341 M241.8142,107.064 C241.7842,108.321 241.7332,109.578 241.7272,110.835 C241.7142,113.156 242.4512,115.822 241.5502,117.712 C240.3812,120.163 241.8032,121.991 241.7472,124.09 C241.6862,126.41 241.6832,128.733 241.7372,131.052 C241.7592,132.002 241.4662,132.323 240.5032,132.314 C236.1932,132.273 231.8822,132.277 227.5722,132.311 C226.6852,132.318 226.2592,132.154 226.2722,131.129 C226.3222,127.416 226.2422,123.701 226.2922,119.988 C226.3442,116.13 226.0772,112.282 226.0132,108.429 C226.9812,106.294 226.0672,104.136 226.0792,101.991 C226.0962,98.706 226.0242,95.421 225.9892,92.137 C226.2162,91.182 226.2432,90.227 225.9862,89.273 C226.0232,88.027 226.0912,86.78 226.0902,85.533 C226.0862,81.008 226.0772,81.008 230.1252,82.387 C230.3182,82.191 230.5112,81.996 230.7042,81.8 C230.8672,81.904 231.0302,82.007 231.1932,82.11 C231.1442,82.385 231.0952,82.66 231.0462,82.936 L227.9062,83.879 C227.5012,83.792 227.0672,83.83 227.1142,84.326 C227.1462,84.671 227.5812,84.608 227.8852,84.543 C229.8132,84.669 231.2762,85.722 232.6592,86.937 C232.8472,87.225 233.1202,87.34 233.4572,87.325 C233.6092,87.393 233.7622,87.462 233.9152,87.53 C234.6662,87.023 234.1642,86.334 234.1772,85.719 C234.2012,85.588 234.2252,85.456 234.2492,85.325 C234.4912,85.241 234.7282,85.134 234.9772,85.077 C235.4522,84.967 236.1612,86.243 236.4032,84.873 C236.4982,84.334 237.3212,83.769 236.7092,83.314 C236.0402,82.816 235.6852,83.829 235.1182,84.018 C234.8732,84.1 234.6232,84.165 234.3762,84.238 C235.0102,82.511 232.7882,81.958 232.8282,80.474 C232.4492,79.847 232.0402,79.948 231.6152,80.425 C230.9002,80.481 230.1842,80.538 229.4692,80.594 C229.1942,80.543 228.9202,80.491 228.6462,80.44 C228.1632,78.513 227.1092,79.925 226.1262,80.18 C226.1262,76.617 226.1122,73.196 226.1292,69.777 C226.1672,62.582 226.2212,55.388 226.2682,48.193 C237.2382,48.232 248.2082,48.27 259.1782,48.309 C262.4312,48.585 265.1442,50.367 268.0252,51.613 C271.0682,52.929 272.6872,55.887 274.7402,58.314 C275.0812,60.807 276.2972,63.057 276.6762,65.561 C276.8922,66.98 276.3772,67.664 275.2692,68.204 C274.8382,68.414 273.9092,68.21 274.0862,68.885 C274.2482,69.503 274.8042,70.245 275.7572,70.091 C277.0322,69.886 277.1712,70.514 276.9442,71.572 C276.8082,72.208 276.8872,72.89 276.8732,73.552 C276.7372,80.114 275.1332,86.121 270.3062,90.91 C268.0512,93.148 266.4052,93.887 264.1932,93.676 C264.0522,93.662 263.7612,93.83 263.7652,93.9 C263.8702,95.752 262.2902,95.525 261.3022,95.731 C257.4632,96.528 253.5502,96.534 249.6452,96.552 C246.6922,96.566 246.3192,96.042 247.3332,93.329 C247.4262,93.082 247.5972,92.819 247.3042,92.637 C246.9502,92.417 246.7082,92.653 246.4942,92.93 C245.8662,93.742 245.9242,94.589 246.2352,95.515 C246.3232,95.779 246.7972,96.217 246.2112,96.497 C246.0512,96.573 245.8152,96.561 245.6342,96.513 C245.0762,96.367 245.2712,95.912 245.2712,95.541 C245.2722,94.839 245.2712,94.138 245.2712,93.379 C244.1292,93.738 244.0502,94.6 244.2422,95.46 C244.4822,96.534 244.0922,96.821 243.1412,96.525 C241.9732,96.161 241.6932,96.844 241.6972,97.748 C241.7122,100.854 241.7722,103.959 241.8142,107.064" id="Fill-7" fill="#FEFEFE" sketch:type="MSShapeGroup"/>
            <g id="Group-11">
                <mask id="mask-2" sketch:name="Clip 10" fill="white">
                    <use xlink:href="#path-1"/>
                </mask>
                <g id="Clip-10"/>
                <path d="M300.0146,95.705 C300.5076,95.185 300.8436,94.82 301.1916,94.467 C301.8596,93.791 301.7476,93.198 300.7926,93.473 C300.0326,93.691 299.5436,94.54 300.0146,95.705 M312.7666,75.994 C312.7446,75.631 312.7076,75.221 312.2496,75.349 C311.6356,75.52 311.2276,75.973 311.2536,76.647 C311.2656,76.966 311.4416,77.353 311.8446,77.301 C312.5976,77.203 312.6526,76.551 312.7666,75.994 M304.1946,63.776 C305.0746,64.422 304.0146,65.612 305.0656,66.108 C305.1526,66.149 305.5596,65.827 305.5726,65.657 C305.6346,64.766 305.5716,63.896 304.1946,63.776 M301.0526,120.672 C300.7366,121.92 300.4566,123.173 301.2546,124.304 C301.5786,123.06 301.7776,121.834 301.0526,120.672 M309.7496,66.537 C310.5256,65.581 310.0246,64.739 309.5166,63.919 C309.4706,63.845 309.0676,63.861 309.0336,63.932 C308.6236,64.786 308.9326,65.562 309.3676,66.305 C309.4226,66.399 309.5766,66.436 309.7496,66.537 M305.6256,74.674 C306.2956,74.602 306.7026,74.159 306.7606,73.546 C306.8066,73.072 306.8276,72.302 306.1776,72.276 C305.4876,72.249 305.0296,72.872 304.8236,73.526 C304.6166,74.178 305.0726,74.466 305.6256,74.674 M301.4416,100.164 C301.2426,100.2 301.0436,100.235 300.8446,100.27 C301.1446,101.682 301.4446,103.094 301.7446,104.507 C302.6796,102.886 302.2666,101.492 301.4416,100.164 M304.2906,86.403 C303.8506,85.588 303.1276,85.045 302.2116,84.82 C301.8096,84.721 301.2366,85.234 301.4056,85.425 C302.0566,86.161 302.8426,86.796 303.6606,87.347 C303.8076,87.446 304.2196,86.885 304.2906,86.403 M308.9516,91.464 C309.0766,92.468 308.9576,93.373 309.3266,93.981 C309.7496,94.677 309.5966,96.148 310.0526,96.011 C311.4466,95.592 309.5776,94.702 310.0696,93.946 C310.2216,93.712 310.0566,93.294 310.1486,92.995 C310.4086,92.148 309.9786,91.791 308.9516,91.464 M305.9986,68.049 C305.9006,67.925 305.7606,67.716 305.5906,67.537 C304.0666,65.937 303.2706,67.68 302.2406,68.288 C301.9416,68.464 301.7826,68.852 301.9826,69.138 C302.2676,69.549 302.6066,69.33 302.9846,69.115 C303.7426,68.685 304.2816,67.141 305.4946,68.551 C305.6406,68.722 305.9706,68.501 305.9986,68.049 M311.3036,125.677 C308.7126,124.189 308.6556,124.23 308.1056,126.666 C307.9976,127.145 307.9866,127.38 308.4336,127.583 C308.7946,127.747 309.2056,127.676 309.2696,127.358 C309.4786,126.324 310.4326,126.212 311.3036,125.677 M299.8236,108.809 C299.0226,110.262 299.7706,111.608 299.5006,112.952 C299.4196,113.358 298.9486,113.772 299.5386,114.166 C299.7946,114.337 300.0446,114.312 300.2656,114.155 C300.7366,113.819 300.9386,113.345 300.8036,112.778 C300.4886,111.452 300.1516,110.131 299.8236,108.809 M308.4616,116.485 C308.7756,115.24 308.8316,114.241 308.4276,113.231 C308.1676,112.583 308.3066,111.522 307.5636,111.392 C306.7786,111.256 306.0166,111.852 305.3516,113.012 C308.9206,112.136 306.8316,115.476 308.4616,116.485 M308.9696,89.146 C309.3186,88.324 308.5856,87.467 309.1046,86.793 C309.6706,86.058 309.0436,85.785 308.6686,85.848 C307.9166,85.974 306.8466,86.175 306.5696,86.697 C306.1716,87.444 306.5796,88.31 307.7436,88.414 C308.1566,88.451 308.2266,89.206 308.9696,89.146 M304.0336,103.538 C305.8336,103.412 307.3846,103.369 306.3176,101.149 C306.8826,100.936 305.7276,98.733 307.6596,100.009 C307.9376,100.192 308.2376,99.633 308.0426,99.167 C307.7256,98.409 307.0106,98.209 306.3646,97.879 C305.9486,97.667 305.5676,97.292 305.1426,97.748 C304.7776,98.139 304.8056,98.77 305.1496,99.017 C306.1106,99.708 305.5786,100.342 305.2426,101.027 C304.8686,101.788 304.5066,102.555 304.0336,103.538 M309.3926,79.081 C309.5286,79.337 309.7306,79.557 309.7556,79.795 C309.8506,80.698 310.4236,81.508 311.1516,81.5 C312.0616,81.491 312.1916,80.286 312.5616,79.595 C312.9866,78.804 311.5936,77.438 310.8236,77.894 C309.1176,78.905 307.3526,78.165 305.6286,78.275 C305.1786,78.304 304.7966,78.053 304.5116,78.596 C304.2566,79.082 304.3916,79.442 304.7016,79.855 C305.7886,81.3 306.2706,83.252 308.2826,84.008 C308.2636,82.739 308.8586,81.327 306.9916,80.746 C307.7916,80.032 308.4716,79.433 309.3926,79.081 M313.6376,86.22 C313.6576,90.983 313.9156,95.761 313.6036,100.502 C313.4356,103.051 313.6236,105.515 313.8146,108.015 C313.3736,112.241 314.1376,116.51 313.4796,120.712 C312.9516,124.08 313.7906,127.396 313.5486,130.745 C313.4716,131.797 313.1936,132.066 312.1736,132.06 C308.2246,132.038 304.2706,132.007 300.3276,132.185 C298.4096,132.271 297.7596,131.883 297.7946,129.765 C297.9256,121.816 297.8076,113.864 297.7836,105.912 C297.8146,103.267 297.8226,100.622 297.9086,97.978 C297.9186,97.693 297.2836,96.818 298.5836,97.014 C299.4736,97.148 298.9236,95.992 299.1026,95.443 C299.2066,95.123 299.3056,94.335 299.0336,94.418 C296.6856,95.132 297.9456,93.202 297.9406,92.73 C297.8606,85.381 297.9086,78.031 297.8986,70.681 C297.8976,69.48 297.7786,68.323 299.5956,68.651 C300.1996,68.76 300.4206,68.062 300.8746,67.812 C302.0746,67.151 301.6906,65.817 301.3126,65.232 C300.8026,64.442 300.1526,65.524 299.5746,65.841 C299.0326,66.139 298.8146,66.942 297.9616,66.87 C297.9616,65.855 297.8636,64.86 297.9846,63.892 C298.1796,62.318 297.6046,61.884 296.0326,61.918 C291.1346,62.022 286.2336,61.966 281.3336,61.944 C280.6266,61.941 279.6476,62.327 279.5306,61.056 C279.5586,56.68 279.5866,52.303 279.6136,47.926 C283.9956,47.707 288.3776,47.714 292.7596,47.924 C292.8416,48.143 292.9236,48.361 293.0046,48.58 C293.1246,48.379 293.2436,48.177 293.3626,47.976 C294.0256,47.529 294.7736,47.733 295.4826,47.729 C304.5096,47.682 313.5366,47.653 322.5636,47.619 C322.6616,47.722 322.7606,47.826 322.8596,47.93 C322.7526,48.148 322.6466,48.366 322.5396,48.584 C322.0386,48.738 321.6256,48.946 321.9126,49.591 C322.3136,50.405 322.8976,50.288 323.4836,49.853 C324.2006,49.321 324.9026,48.76 325.2376,47.881 C327.3156,47.397 329.4246,47.778 331.5156,47.657 C331.5616,52.016 331.5736,56.376 331.6756,60.733 C331.7056,62.013 330.9466,61.875 330.1386,61.874 C325.1806,61.867 320.2216,61.917 315.2646,61.839 C313.9436,61.818 313.5916,62.199 313.6056,63.506 C313.6556,68.31 313.8066,73.133 313.4436,77.914 C313.2836,80.021 314.1926,82.079 313.4456,84.14 C312.8486,83.646 312.0156,83.244 311.5346,83.902 C310.8826,84.793 312.0146,85.524 312.2786,86.342 C312.5576,87.209 313.1906,86.537 313.6376,86.22" id="Fill-9" fill="#FEFEFE" sketch:type="MSShapeGroup" mask="url(#mask-2)"/>
            </g>
            <path d="M70.0811,63.5527 C69.7841,64.5997 69.9821,65.4487 70.5561,66.1867 C70.7351,66.4157 71.1121,66.2217 71.1441,65.9727 C71.2611,65.0627 71.2061,64.1807 70.0811,63.5527 M73.9341,75.8927 C73.9181,75.5187 73.8631,75.1307 73.4251,75.2237 C72.8021,75.3557 72.3751,75.7817 72.3341,76.4467 C72.3081,76.8627 72.5361,77.3267 72.9761,77.2257 C73.6111,77.0787 73.7881,76.4437 73.9341,75.8927 M71.0041,94.7987 C71.3331,92.0397 71.3331,92.0397 70.0471,91.5687 C70.2311,93.5177 70.2311,93.5177 71.0041,94.7987 M62.2801,120.7087 C61.9271,121.9677 61.6501,123.2407 62.3511,124.9197 C62.9651,123.2207 62.8021,121.9697 62.2801,120.7087 M67.9431,73.2427 C67.8161,72.7567 67.8961,71.9577 67.2531,72.0347 C66.5391,72.1207 66.0511,72.8657 65.8321,73.5247 C65.6371,74.1107 66.1981,74.5067 66.7451,74.5157 C67.5301,74.5297 67.8741,73.9777 67.9431,73.2427 M64.4571,87.3827 C65.0611,87.2897 65.3891,86.9167 65.3471,86.5737 C65.2061,85.4397 64.1821,85.1087 63.3231,84.7307 C63.0241,84.5997 62.4091,84.9747 62.4841,85.3457 C62.7091,86.4587 64.1851,86.3657 64.4571,87.3827 M63.1501,104.5497 C63.7841,102.8747 63.4791,101.4107 62.1451,100.1937 C62.2311,101.6967 62.2551,103.2067 63.1501,104.5497 M63.6061,69.2857 C63.7161,69.2177 63.8651,69.0697 64.0401,69.0257 C64.8901,68.8127 65.3381,66.7997 66.6511,68.4557 C66.7961,68.6387 67.2571,68.1327 67.0291,67.8287 C66.5561,67.1967 65.7331,66.3987 65.1231,66.7987 C64.3741,67.2897 63.3301,67.7147 63.0701,68.7737 C63.0191,68.9827 63.1791,69.2947 63.6061,69.2857 M72.3861,125.7287 C69.8841,124.3287 69.9111,124.3367 69.2621,126.6947 C69.1471,127.1127 68.9621,127.4017 69.4291,127.6607 C69.8471,127.8937 70.3241,127.8247 70.3951,127.3927 C70.5731,126.3087 71.6511,126.3717 72.3861,125.7287 M60.8841,108.8537 C60.7261,108.8747 60.5681,108.8967 60.4091,108.9177 C60.4801,110.2887 60.5951,111.6597 60.5951,113.0307 C60.5941,113.4417 60.0931,113.8907 60.6911,114.2147 C60.8671,114.3107 61.2161,114.2547 61.4011,114.1357 C61.8171,113.8697 62.0421,113.4277 61.9261,112.9377 C61.6041,111.5707 61.2351,110.2147 60.8841,108.8537 M69.9041,89.1947 C70.2191,88.2577 70.3831,87.1847 70.2231,86.6307 C69.6001,84.4677 68.5021,86.9647 67.5901,86.5757 C67.1171,88.5327 69.3461,88.1067 69.9041,89.1947 M69.4751,116.5147 C70.2651,114.7177 69.5631,113.2537 69.0971,111.7817 C68.9631,111.3577 68.5921,111.1187 68.1721,111.4187 C67.6581,111.7867 66.8251,111.9217 66.7801,112.6737 C66.7551,113.0997 67.3121,113.1577 67.7241,113.1067 C68.7961,112.9717 68.6441,113.7697 68.7151,114.3997 C68.7931,115.0967 68.5861,115.8777 69.4751,116.5147 M65.0901,103.6267 C67.4271,103.1547 67.3721,103.1517 67.4861,101.0427 C67.5081,100.6317 67.1591,99.2317 68.6661,99.9687 C69.1981,100.2297 69.4361,99.5307 69.0671,99.1017 C68.6491,98.6157 68.0981,98.2317 67.5631,97.8627 C67.1391,97.5697 66.6361,97.2297 66.1771,97.8057 C65.8381,98.2327 65.9371,98.8367 66.2951,99.0577 C67.4431,99.7687 66.6981,100.4447 66.3641,101.1347 C65.9951,101.8947 65.5961,102.6407 65.0901,103.6267 M74.6781,111.6007 C74.5751,115.5007 74.6211,119.3977 74.3861,123.3047 C74.2391,125.7347 74.5181,128.2877 74.6501,130.7827 C74.7141,131.9727 74.2551,132.2177 73.1681,132.2067 C69.0331,132.1667 64.8951,132.1497 60.7621,132.2647 C59.2961,132.3057 58.8511,131.9507 58.8711,130.4207 C58.9661,122.8867 58.9331,115.3507 58.9351,107.8157 C58.9351,107.0917 58.8661,106.3667 58.8291,105.6427 C59.1331,102.6977 58.9511,99.7467 58.9411,96.7977 C59.4871,97.0867 60.1431,97.7517 60.2311,96.4317 C60.2711,95.8437 60.2981,95.2547 60.3311,94.6667 C60.3771,94.6197 60.4181,94.5657 60.4711,94.5277 C60.5131,94.4987 60.5771,94.4637 60.6181,94.4757 C61.1601,94.6387 60.5311,95.5997 61.5951,95.5697 C60.9521,94.4317 63.4911,94.5047 62.4451,93.4997 C61.4871,92.5797 61.4321,94.8057 60.4041,94.6577 C60.0151,93.5897 59.4181,94.7887 58.9561,94.5257 C58.9811,86.5117 59.0151,78.4977 59.0211,70.4827 C59.0211,69.3757 58.8711,68.3247 60.5701,68.5627 C61.4591,68.6867 61.9441,67.7647 62.4381,67.2707 C62.9271,66.7817 62.8481,65.6087 62.3801,65.0657 C61.8331,64.4317 61.2261,65.2437 60.7331,65.5977 C60.3081,65.9027 59.9891,66.3507 59.5851,66.6907 C58.9271,67.2437 59.1251,66.3797 58.8801,66.2397 C59.0971,63.1897 58.8811,60.1437 58.8031,57.0967 C59.1641,57.1377 59.7111,57.4197 59.8151,56.9617 C59.9661,56.3037 59.3581,55.9987 58.8301,55.7457 C58.8141,53.0237 58.7981,50.3017 58.7821,47.5787 C64.0711,47.5907 69.3591,47.6017 74.6481,47.6137 C74.6771,52.5127 74.7061,57.4107 74.7351,62.3097 C74.7011,65.4187 74.6641,68.5277 74.6331,71.6367 C74.6091,74.1117 74.6951,76.5897 74.3151,79.0487 C73.2571,79.2237 73.2381,77.2777 72.1531,77.8527 C70.5351,78.7097 68.8491,78.3527 67.2741,78.1677 C65.8721,78.0037 65.4471,78.7347 64.7981,79.5457 C64.0441,80.4877 64.9361,80.7987 65.3811,81.2837 C65.9711,81.9267 65.4161,82.4077 65.1191,82.8597 C64.3081,84.0977 66.0281,84.0457 66.1061,84.8737 C66.1541,85.3827 66.6431,85.3177 67.0331,85.0607 C68.8061,83.8917 69.7921,82.2017 70.1481,80.1577 C70.2091,79.8127 69.5711,79.2787 70.3111,79.0957 C70.8721,78.9577 70.7911,79.6077 70.8741,79.9117 C71.0851,80.6787 71.5001,81.3207 72.2531,81.4427 C73.0701,81.5757 72.7621,80.5327 73.2121,80.2227 C73.6191,79.9427 73.6481,79.2307 74.3181,79.2647 C74.4381,79.8217 74.5571,80.3797 74.6761,80.9377 C74.4731,81.3327 74.4111,81.7437 74.5461,82.1747 C74.3321,82.7087 74.3391,83.2517 74.4791,83.8007 C74.2761,83.8267 74.0741,83.8537 73.8711,83.8807 C73.6471,83.6807 73.3961,83.6907 73.3151,83.9677 C73.2391,84.2237 73.4461,84.3977 73.7271,84.4207 C73.7471,84.1497 73.6281,84.0577 73.3701,84.1477 C72.8751,84.2087 72.6931,84.4947 72.8691,84.9467 C73.0521,85.4167 73.3351,85.7567 73.8891,85.3537 C74.9841,85.6717 74.2731,86.7257 74.6921,87.3197 L74.7341,91.7027 C74.7001,94.7257 74.5391,97.7557 74.6981,100.7677 C74.7571,101.8987 73.5801,102.6517 74.0011,103.5967 C74.9901,105.8167 74.6001,108.1117 74.6651,110.3867 C73.9611,110.7107 72.5221,109.8837 72.5741,111.1347 C72.6211,112.2927 73.9001,110.9917 74.5161,111.4867 C74.5671,111.5277 74.6241,111.5627 74.6781,111.6007" id="Fill-12" fill="#FEFEFE" sketch:type="MSShapeGroup"/>
            <path d="M94.7859,104.4688 C95.0849,103.6958 95.1169,103.1398 94.8079,102.6148 C94.7739,102.5558 94.3839,102.5888 94.3449,102.6688 C94.0499,103.2828 94.1229,103.8438 94.7859,104.4688 M83.4579,108.3268 C83.2989,107.7548 83.1619,107.1698 82.7899,107.2748 C82.0329,107.4888 81.5389,108.1518 81.1769,108.8428 C81.1169,108.9578 81.4359,109.4388 81.4989,109.4238 C82.2819,109.2298 82.4639,108.1358 83.4579,108.3268 M103.6559,121.2708 C101.1349,120.2388 101.0419,120.2928 100.6649,122.4138 C100.5979,122.7918 100.5829,123.0308 100.9539,123.1778 C101.2599,123.2988 101.6269,123.4328 101.7449,122.9828 C101.9969,122.0298 102.9419,121.8708 103.6559,121.2708 M89.0409,118.6798 C88.6609,118.9538 88.2249,119.2298 87.8329,119.5588 C86.8199,120.4068 88.5439,120.9108 88.1439,121.7268 C88.1089,121.7978 88.7319,121.9948 88.7679,121.7698 C88.9309,120.7618 90.8599,119.9338 89.0409,118.6798 M92.4309,111.3978 C92.4069,111.4808 92.3589,111.7348 92.2599,111.9678 C92.0269,112.5218 91.6599,113.1888 92.6179,113.3058 C93.4449,113.4068 93.5449,112.6098 93.4819,112.0628 C93.3469,110.9018 93.0649,109.7578 92.8289,108.6088 C92.7609,108.2768 92.6039,107.9328 92.1919,108.1188 C92.0179,108.1978 91.8329,108.5418 91.8629,108.7318 C91.9979,109.5698 92.2099,110.3948 92.4309,111.3978 M80.6899,111.9928 C80.5679,109.1608 80.4809,106.3258 80.3069,103.4968 C80.2379,102.3658 80.6249,102.0218 81.7519,102.0408 C85.4489,102.1028 89.1509,102.1378 92.8449,102.0078 C93.6859,101.9788 94.4199,103.3098 95.2769,102.1618 C95.6069,102.4808 95.4839,102.8948 95.5129,103.2788 C95.6849,105.5148 94.6319,107.7608 95.5699,109.9908 C95.6629,111.0418 95.7089,112.0988 95.8569,113.1418 C96.6149,118.5108 101.9869,121.7348 107.7059,119.4718 C108.2989,119.2368 108.8899,118.9978 109.8919,118.5968 C109.8919,122.8318 109.8909,126.8238 109.8919,130.8148 C109.8919,131.5588 109.3419,131.6308 108.8089,131.6838 C102.5179,132.3068 96.3369,131.9358 90.5609,129.1128 C86.6889,127.2198 84.5339,123.8108 82.7519,119.9748 C81.5489,117.3838 81.2799,114.6748 80.6899,111.9928" id="Fill-14" fill="#FEFEFE" sketch:type="MSShapeGroup"/>
            <path d="M87.0427,56.2688 C86.9167,55.9888 86.8197,55.7728 86.7227,55.5558 C86.5927,55.6588 86.4107,55.7358 86.3447,55.8708 C86.2207,56.1218 86.2967,56.3938 86.5497,56.5168 C86.6347,56.5578 86.8247,56.3848 87.0427,56.2688 M92.3447,64.2008 C92.5917,63.2398 92.8387,62.2468 91.3377,61.6358 C91.3297,62.7308 91.5507,63.5388 92.3447,64.2008 M105.6117,85.9608 C105.4387,85.4758 105.2757,84.9348 104.6367,84.9088 C104.2927,84.8948 103.7217,84.7818 103.7237,85.3308 C103.7267,85.9198 103.9767,86.5058 104.7117,86.5608 C105.1217,86.5918 105.4917,86.4488 105.6117,85.9608 M95.9867,88.4658 C96.6567,88.3338 96.7827,87.8398 96.7497,87.5358 C96.6277,86.4258 95.7187,86.1618 94.8047,86.0288 C94.5047,85.9848 94.0217,86.1928 94.1357,86.5478 C94.4487,87.5148 95.7857,87.4648 95.9867,88.4658 M101.2317,90.1068 C101.0627,88.9958 102.1227,87.7028 100.8407,86.9108 C100.4837,86.6908 99.2177,87.1168 99.0867,87.4938 C98.4467,89.3438 100.4537,89.2288 101.2317,90.1068 M85.6677,73.9668 C86.6397,73.3278 87.1407,72.8788 87.7277,72.6388 C88.7207,72.2318 89.0827,71.8878 87.9377,71.1848 C87.7527,71.0718 87.7787,70.5878 87.7397,70.2708 C87.6967,69.9318 87.6347,69.5658 87.2927,69.4568 C86.6577,69.2548 86.8927,70.0388 86.6707,70.1208 C84.5137,70.9248 86.2227,72.5188 85.6677,73.9668 M94.1367,67.3518 C92.6037,68.2498 91.2587,69.0488 90.1707,70.2098 C89.8607,70.5418 89.5537,71.3168 90.1337,71.2468 C91.4277,71.0918 92.8527,71.1068 93.9157,70.0368 C94.7487,69.1988 94.2227,68.3898 94.1367,67.3518 M81.8697,62.2618 C84.7017,54.5908 90.2297,50.0478 98.1247,48.2498 C101.8667,47.7608 105.6127,47.7218 109.3647,48.1218 C109.8467,48.4118 109.8007,48.8878 109.8007,49.3518 C109.7997,53.4588 109.7997,57.5658 109.7997,61.9478 C106.6487,59.4618 103.2847,59.2738 99.8277,60.5558 C97.9387,61.2558 96.6917,62.6948 96.1917,64.7018 C95.5307,65.6738 95.3087,66.8128 95.5017,67.8968 C95.7357,69.2128 95.5807,70.3058 94.4397,71.2828 C96.7987,71.1378 98.2967,73.1208 97.4737,75.0438 C97.2917,75.4688 97.2977,75.8048 97.6077,76.1068 C97.8457,76.3388 98.2237,76.5558 98.4877,76.3008 C100.3487,74.5028 101.1567,76.7748 101.6047,77.5118 C102.1947,78.4828 102.8837,78.6938 103.7327,78.9658 C103.1097,79.7448 102.2777,79.9508 101.3317,79.8448 C100.2287,79.6588 99.1147,80.1968 98.0177,79.7978 C97.5417,79.6248 97.2797,79.8788 97.0507,80.2258 C96.7787,80.6368 96.9207,80.9738 97.2687,81.2468 C98.1187,81.9118 98.1337,82.9748 98.5627,83.8358 C98.9117,84.5358 100.1347,84.2258 100.5107,85.1918 C100.6707,84.3908 101.0237,83.3978 100.6877,83.0208 C99.5067,81.6978 100.7377,81.2868 101.3677,80.6118 C102.4787,81.1358 102.0677,82.9518 103.6327,83.1018 C104.1877,82.4418 104.2787,81.2738 105.3467,80.8768 C106.8477,81.2318 107.9817,82.2288 109.2177,83.0578 C110.0437,83.6118 109.8117,84.4188 109.8487,85.1728 C109.8967,86.1428 109.9407,87.1118 109.9867,88.0808 L109.9867,101.2348 C107.8877,99.6408 106.3397,98.0278 104.4507,97.1378 C101.9947,95.9818 102.9597,93.2768 101.5427,91.6478 C100.8587,92.7938 101.7867,93.6858 101.6437,94.8558 C100.9877,94.4938 100.4067,94.1718 99.8257,93.8508 C97.2347,92.0328 94.6357,90.2268 92.0587,88.3878 C91.4367,87.9438 90.4407,87.7278 91.0657,86.4688 C91.4067,85.7808 90.6427,85.6148 90.0947,85.7338 C88.8687,86.0018 88.0837,85.3268 87.3447,84.5428 C81.7787,78.6468 80.3337,71.6078 81.6107,63.8178 C81.6967,63.2988 81.7837,62.7808 81.8697,62.2618" id="Fill-16" fill="#FEFEFE" sketch:type="MSShapeGroup"/>
            <path d="M14.4884,7.4454 L14.4884,32.4994 L8.6244,32.4994 L8.6244,7.4454 L0.2054,7.4454 L0.2054,1.2934 L22.9064,1.2934 L22.9064,7.4454 L14.4884,7.4454 Z" id="Fill-18" fill="#FEFEFE" sketch:type="MSShapeGroup"/>
            <path d="M35.0948,18.145 C35.0378,17.61 34.9258,17.097 34.7568,16.606 C34.5878,16.116 34.3438,15.67 34.0208,15.269 C33.6978,14.868 33.2968,14.55 32.8198,14.311 C32.3418,14.073 31.7808,13.954 31.1358,13.954 C30.0688,13.954 29.2268,14.355 28.6078,15.157 C27.9908,15.961 27.6248,16.956 27.5138,18.145 L35.0948,18.145 Z M40.7068,20.819 C40.7068,21.266 40.6988,21.644 40.6858,21.956 C40.6708,22.269 40.6508,22.543 40.6228,22.782 L27.4298,22.782 C27.4848,23.583 27.6528,24.268 27.9328,24.832 C28.2108,25.397 28.5598,25.85 28.9788,26.191 C29.3978,26.533 29.8658,26.786 30.3818,26.949 C30.8988,27.112 31.4228,27.195 31.9528,27.195 C32.7628,27.195 33.4878,27.046 34.1308,26.748 C34.7728,26.452 35.3038,26.05 35.7218,25.545 L39.8268,29.201 C38.9338,30.419 37.7678,31.356 36.3298,32.008 C34.8908,32.662 33.4328,32.99 31.9528,32.99 C30.3618,32.99 28.9328,32.7 27.6658,32.121 C26.3988,31.54 25.3218,30.723 24.4348,29.668 C23.5488,28.613 22.8628,27.336 22.3778,25.834 C21.8918,24.334 21.6498,22.662 21.6498,20.819 C21.6498,19.036 21.9008,17.395 22.4038,15.893 C22.9068,14.393 23.5968,13.1 24.4768,12.015 C25.3568,10.93 26.3898,10.09 27.5768,9.496 C28.7628,8.902 30.0538,8.604 31.4508,8.604 C32.9018,8.604 34.2068,8.924 35.3668,9.563 C36.5248,10.203 37.4948,11.078 38.2768,12.193 C39.0588,13.309 39.6598,14.609 40.0778,16.094 C40.4968,17.581 40.7068,19.156 40.7068,20.819 L40.7068,20.819 Z" id="Fill-20" fill="#FEFEFE" sketch:type="MSShapeGroup"/>
            <path d="M61.7937,29.8934 C61.1927,30.5124 60.5377,31.0584 59.8257,31.5294 C59.1137,32.0024 58.3187,32.3624 57.4387,32.6134 C56.5587,32.8634 55.5747,32.9904 54.4857,32.9904 C53.0627,32.9904 51.7207,32.6914 50.4647,32.0984 C49.2077,31.5044 48.1127,30.6714 47.1777,29.6024 C46.2417,28.5314 45.5087,27.2464 44.9787,25.7444 C44.4477,24.2454 44.1817,22.6024 44.1817,20.8194 C44.1817,19.0364 44.4477,17.3944 44.9787,15.8934 C45.5087,14.3924 46.2417,13.0994 47.1777,12.0154 C48.1127,10.9304 49.2227,10.0904 50.5067,9.4954 C51.7907,8.9014 53.2017,8.6044 54.7367,8.6044 C56.8307,8.6044 58.5757,9.0854 59.9727,10.0434 C61.3687,11.0014 62.5277,12.2324 63.4477,13.7374 L59.6377,17.8334 C58.9947,16.8524 58.2897,16.0484 57.5217,15.4264 C56.7537,14.8024 55.7847,14.4894 54.6117,14.4894 C53.2147,14.4894 52.1047,15.0584 51.2807,16.1954 C50.4577,17.3344 50.0467,18.8744 50.0467,20.8194 C50.0467,22.7054 50.4577,24.2244 51.2807,25.3774 C52.1047,26.5294 53.2147,27.1054 54.6117,27.1054 C55.7567,27.1054 56.7197,26.8464 57.5017,26.3254 C58.2827,25.8054 59.0507,25.0694 59.8047,24.1174 L63.4907,27.8124 C62.9597,28.5804 62.3937,29.2734 61.7937,29.8934" id="Fill-22" fill="#FEFEFE" sketch:type="MSShapeGroup"/>
            <path d="M81.0812,32.4993 L81.0812,19.8393 C81.0812,17.7593 80.7592,16.3323 80.1182,15.5593 C79.4752,14.7863 78.5532,14.3993 77.3532,14.3993 C76.1522,14.3993 75.2232,14.7783 74.5682,15.5363 C73.9112,16.2943 73.5832,17.6843 73.5832,19.7053 L73.5832,32.4993 L67.8042,32.4993 L67.8042,3.0763 L73.5832,0.0013 L73.5832,10.6553 C74.0862,10.0903 74.7782,9.6073 75.6572,9.2063 C76.5362,8.8063 77.5622,8.6043 78.7352,8.6043 C81.5272,8.6043 83.5802,9.5633 84.8932,11.4803 C86.2042,13.3963 86.8602,16.0053 86.8602,19.3043 L86.8602,32.4993 L81.0812,32.4993" id="Fill-24" fill="#FEFEFE" sketch:type="MSShapeGroup"/>
            <path d="M109.9791,10.3879 C109.4491,9.3189 108.7581,8.4859 107.9061,7.8919 C107.0541,7.2969 105.9581,6.9999 104.6181,6.9999 C103.5291,6.9999 102.5521,7.2449 101.6861,7.7349 C100.8211,8.2259 100.0951,8.9099 99.5091,9.7869 C98.9221,10.6629 98.4751,11.7029 98.1681,12.9059 C97.8611,14.1109 97.7081,15.4409 97.7081,16.8969 C97.7081,18.2929 97.8611,19.5939 98.1681,20.7969 C98.4751,22.0019 98.9291,23.0479 99.5291,23.9399 C100.1301,24.8319 100.8631,25.5309 101.7291,26.0359 C102.5941,26.5409 103.5711,26.7939 104.6601,26.7939 C106.0011,26.7939 107.0961,26.4809 107.9481,25.8569 C108.7991,25.2319 109.6161,24.2229 110.3981,22.8259 L115.3411,25.9459 C114.3351,28.1759 112.9461,29.9069 111.1731,31.1399 C109.4001,32.3739 107.1731,32.9899 104.4931,32.9899 C102.5661,32.9899 100.8211,32.6109 99.2581,31.8529 C97.6931,31.0959 96.3471,30.0179 95.2161,28.6199 C94.0841,27.2249 93.2111,25.5379 92.5981,23.5609 C91.9831,21.5849 91.6771,19.3639 91.6771,16.8969 C91.6771,14.5189 91.9981,12.3419 92.6401,10.3649 C93.2821,8.3889 94.1751,6.6959 95.3201,5.2839 C96.4651,3.8729 97.8331,2.7719 99.4251,1.9859 C101.0161,1.1979 102.7751,0.8029 104.7021,0.8029 C106.0701,0.8029 107.3131,0.9749 108.4301,1.3159 C109.5471,1.6579 110.5451,2.1339 111.4241,2.7429 C112.3041,3.3519 113.0721,4.0799 113.7281,4.9269 C114.3831,5.7739 114.9491,6.7029 115.4241,7.7129 L109.9791,10.3879" id="Fill-26" fill="#FEFEFE" sketch:type="MSShapeGroup"/>
            <path d="M133.1826,16.2719 C132.7066,15.8269 132.1916,15.4629 131.6326,15.1809 C131.0746,14.8979 130.4746,14.7569 129.8316,14.7569 C129.2726,14.7569 128.7636,14.8309 128.3036,14.9789 C127.8426,15.1289 127.4516,15.3959 127.1306,15.7819 C126.8096,16.1689 126.5576,16.6899 126.3766,17.3419 C126.1946,17.9969 126.1046,18.8299 126.1046,19.8389 L126.1046,32.4989 L120.3256,32.4989 L120.3256,9.0949 L126.1046,9.0949 L126.1046,10.6559 C126.6076,10.0909 127.2286,9.6079 127.9676,9.2069 C128.7076,8.8059 129.5946,8.6039 130.6276,8.6039 C131.5766,8.6039 132.3936,8.7759 133.0786,9.1169 C133.7616,9.4599 134.2996,9.8379 134.6896,10.2539 L133.1826,16.2719" id="Fill-28" fill="#FEFEFE" sketch:type="MSShapeGroup"/>
            <path d="M151.3166,32.4993 L151.3166,30.9393 C150.8146,31.5043 150.1236,31.9863 149.2446,32.3883 C148.3646,32.7883 147.3386,32.9903 146.1656,32.9903 C143.3456,32.9903 141.2856,32.0313 139.9866,30.1143 C138.6896,28.1973 138.0406,25.5893 138.0406,22.2903 L138.0406,9.0953 L143.8196,9.0953 L143.8196,21.7563 C143.8196,22.7963 143.9036,23.6653 144.0716,24.3633 C144.2386,25.0613 144.4756,25.6193 144.7826,26.0363 C145.0906,26.4513 145.4806,26.7483 145.9556,26.9273 C146.4306,27.1053 146.9606,27.1943 147.5476,27.1943 C148.7476,27.1943 149.6766,26.8163 150.3336,26.0573 C150.9876,25.3003 151.3166,23.9103 151.3166,21.8893 L151.3166,9.0953 L157.0966,9.0953 L157.0966,32.4993 L151.3166,32.4993" id="Fill-30" fill="#FEFEFE" sketch:type="MSShapeGroup"/>
            <path d="M175.9859,32.4993 L175.9859,19.8393 C175.9859,17.7593 175.6649,16.3323 175.0229,15.5593 C174.3799,14.7863 173.4589,14.3993 172.2579,14.3993 C171.0579,14.3993 170.1279,14.7783 169.4739,15.5363 C168.8169,16.2943 168.4889,17.6843 168.4889,19.7053 L168.4889,32.4993 L162.7089,32.4993 L162.7089,9.0953 L168.4889,9.0953 L168.4889,10.6553 C168.9919,10.0903 169.6829,9.6073 170.5629,9.2063 C171.4419,8.8063 172.4669,8.6043 173.6399,8.6043 C176.4329,8.6043 178.4849,9.5633 179.7969,11.4803 C181.1099,13.3963 181.7649,16.0053 181.7649,19.3043 L181.7649,32.4993 L175.9859,32.4993" id="Fill-32" fill="#FEFEFE" sketch:type="MSShapeGroup"/>
            <path d="M203.649,29.8934 C203.049,30.5124 202.394,31.0584 201.681,31.5294 C200.97,32.0024 200.174,32.3624 199.294,32.6134 C198.414,32.8634 197.431,32.9904 196.341,32.9904 C194.916,32.9904 193.576,32.6914 192.319,32.0984 C191.064,31.5044 189.968,30.6714 189.033,29.6024 C188.096,28.5314 187.364,27.2464 186.834,25.7444 C186.303,24.2454 186.037,22.6024 186.037,20.8194 C186.037,19.0364 186.303,17.3944 186.834,15.8934 C187.364,14.3924 188.096,13.0994 189.033,12.0154 C189.968,10.9304 191.077,10.0904 192.363,9.4954 C193.646,8.9014 195.057,8.6044 196.592,8.6044 C198.686,8.6044 200.431,9.0854 201.827,10.0434 C203.224,11.0014 204.382,12.2324 205.303,13.7374 L201.493,17.8334 C200.85,16.8524 200.145,16.0484 199.377,15.4264 C198.608,14.8024 197.639,14.4894 196.467,14.4894 C195.069,14.4894 193.96,15.0584 193.136,16.1954 C192.314,17.3344 191.902,18.8744 191.902,20.8194 C191.902,22.7054 192.314,24.2244 193.136,25.3774 C193.96,26.5294 195.069,27.1054 196.467,27.1054 C197.611,27.1054 198.574,26.8464 199.357,26.3254 C200.138,25.8054 200.906,25.0694 201.66,24.1174 L205.346,27.8124 C204.814,28.5804 204.249,29.2734 203.649,29.8934" id="Fill-34" fill="#FEFEFE" sketch:type="MSShapeGroup"/>
            <path d="M222.9364,32.4993 L222.9364,19.8393 C222.9364,17.7593 222.6154,16.3323 221.9734,15.5593 C221.3294,14.7863 220.4094,14.3993 219.2094,14.3993 C218.0084,14.3993 217.0784,14.7783 216.4234,15.5363 C215.7674,16.2943 215.4394,17.6843 215.4394,19.7053 L215.4394,32.4993 L209.6594,32.4993 L209.6594,3.0763 L215.4394,0.0013 L215.4394,10.6553 C215.9414,10.0903 216.6334,9.6073 217.5124,9.2063 C218.3914,8.8063 219.4174,8.6043 220.5904,8.6043 C223.3834,8.6043 225.4354,9.5633 226.7474,11.4803 C228.0604,13.3963 228.7154,16.0053 228.7154,19.3043 L228.7154,32.4993 L222.9364,32.4993" id="Fill-36" fill="#FEFEFE" sketch:type="MSShapeGroup"/>
            <path d="M75.0576,172.5547 L60.9206,172.5547 L60.9206,147.8077 L63.0726,147.8077 L63.0726,170.6257 L75.0576,170.6257 L75.0576,172.5547 Z" id="Fill-38" fill="#FEFEFE" sketch:type="MSShapeGroup"/>
            <path d="M89.1189,171.0706 C92.0389,171.0706 94.4009,170.0506 96.2069,168.0096 C98.0109,165.9686 98.9149,163.3666 98.9149,160.1996 C98.9149,157.0336 98.0179,154.4296 96.2249,152.3896 C94.4309,150.3486 92.0619,149.3286 89.1189,149.3286 C86.1759,149.3286 83.8079,150.3486 82.0139,152.3896 C80.2209,154.4296 79.3249,157.0336 79.3249,160.1996 C79.3249,163.3666 80.2209,165.9686 82.0139,168.0096 C83.8079,170.0506 86.1759,171.0706 89.1189,171.0706 M89.1189,172.9996 C85.5329,172.9996 82.6319,171.7886 80.4189,169.3646 C78.2039,166.9396 77.0979,163.8856 77.0979,160.1996 C77.0979,156.5136 78.2039,153.4596 80.4189,151.0346 C82.6319,148.6116 85.5329,147.3996 89.1189,147.3996 C92.6809,147.3996 95.5749,148.6116 97.8009,151.0346 C100.0279,153.4596 101.1409,156.5136 101.1409,160.1996 C101.1409,163.8856 100.0279,166.9396 97.8009,169.3646 C95.5749,171.7886 92.6809,172.9996 89.1189,172.9996" id="Fill-40" fill="#FEFEFE" sketch:type="MSShapeGroup"/>
            <path d="M126.1479,172.5547 L124.0699,172.5547 L108.4869,151.2947 L108.4869,172.5547 L106.3729,172.5547 L106.3729,147.8077 L108.5249,147.8077 L124.0339,168.7707 L124.0339,147.8077 L126.1479,147.8077 L126.1479,172.5547 Z" id="Fill-42" fill="#FEFEFE" sketch:type="MSShapeGroup"/>
            <path d="M140.2106,170.6253 C143.3756,170.6253 145.8816,169.6363 147.7236,167.6573 C149.5656,165.6783 150.4886,163.1923 150.4886,160.1993 C150.4886,157.2073 149.5726,154.7143 147.7416,152.7233 C145.9116,150.7323 143.4006,149.7363 140.2106,149.7363 L134.4216,149.7363 L134.4216,170.6253 L140.2106,170.6253 Z M140.2106,172.5543 L132.3076,172.5543 L132.3076,147.8073 L140.2106,147.8073 C143.9456,147.8073 146.9626,149.0013 149.2636,151.3873 C151.5646,153.7743 152.7136,156.7113 152.7136,160.1993 C152.7136,163.7123 151.5696,166.6493 149.2816,169.0113 C146.9936,171.3733 143.9686,172.5543 140.2106,172.5543 L140.2106,172.5543 Z" id="Fill-44" fill="#FEFEFE" sketch:type="MSShapeGroup"/>
            <path d="M169.0746,171.0706 C171.9946,171.0706 174.3566,170.0506 176.1626,168.0096 C177.9666,165.9686 178.8706,163.3666 178.8706,160.1996 C178.8706,157.0336 177.9736,154.4296 176.1806,152.3896 C174.3866,150.3486 172.0176,149.3286 169.0746,149.3286 C166.1316,149.3286 163.7636,150.3486 161.9696,152.3896 C160.1766,154.4296 159.2806,157.0336 159.2806,160.1996 C159.2806,163.3666 160.1766,165.9686 161.9696,168.0096 C163.7636,170.0506 166.1316,171.0706 169.0746,171.0706 M169.0746,172.9996 C165.4886,172.9996 162.5876,171.7886 160.3746,169.3646 C158.1596,166.9396 157.0536,163.8856 157.0536,160.1996 C157.0536,156.5136 158.1596,153.4596 160.3746,151.0346 C162.5876,148.6116 165.4886,147.3996 169.0746,147.3996 C172.6366,147.3996 175.5306,148.6116 177.7566,151.0346 C179.9836,153.4596 181.0966,156.5136 181.0966,160.1996 C181.0966,163.8856 179.9836,166.9396 177.7566,169.3646 C175.5306,171.7886 172.6366,172.9996 169.0746,172.9996" id="Fill-46" fill="#FEFEFE" sketch:type="MSShapeGroup"/>
            <path d="M206.1036,172.5547 L204.0256,172.5547 L188.4426,151.2947 L188.4426,172.5547 L186.3286,172.5547 L186.3286,147.8077 L188.4806,147.8077 L203.9896,168.7707 L203.9896,147.8077 L206.1036,147.8077 L206.1036,172.5547 Z" id="Fill-48" fill="#FEFEFE" sketch:type="MSShapeGroup"/>
            <path d="M233.4619,172.5547 L220.8699,172.5547 L220.8699,170.8107 C222.3959,169.2027 223.6169,167.9047 224.5329,166.9147 C225.4489,165.9257 226.4219,164.7997 227.4509,163.5387 C228.4819,162.2767 229.2689,161.1827 229.8129,160.2547 C230.3569,159.3277 230.8089,158.3567 231.1729,157.3427 C231.5349,156.3287 231.7149,155.3517 231.7149,154.4117 C231.7149,152.7547 231.2819,151.4987 230.4139,150.6457 C229.5449,149.7917 228.5299,149.3657 227.3669,149.3657 C226.2219,149.3657 225.1949,149.6567 224.2899,150.2367 C223.3829,150.8187 222.6629,151.6047 222.1289,152.5937 L221.0129,151.2577 C221.6999,150.0707 222.5959,149.1367 223.7029,148.4557 C224.8089,147.7757 226.0299,147.4357 227.3669,147.4357 C228.9499,147.4357 230.3469,148.0297 231.5579,149.2167 C232.7699,150.4047 233.3759,152.1357 233.3759,154.4117 C233.3759,155.7227 233.1359,157.0337 232.6599,158.3447 C232.1829,159.6557 231.4289,161.0337 230.3999,162.4807 C229.3689,163.9287 228.3629,165.2147 227.3809,166.3397 C226.3979,167.4657 225.0769,168.8947 223.4159,170.6257 L233.4619,170.6257 L233.4619,172.5547 Z" id="Fill-50" fill="#FEFEFE" sketch:type="MSShapeGroup"/>
            <path d="M244.6489,171.0706 C245.6029,171.0706 246.4379,170.7496 247.1529,170.1066 C247.8689,169.4636 248.4219,168.6036 248.8129,167.5276 C249.2039,166.4516 249.4899,165.3016 249.6719,164.0766 C249.8519,162.8526 249.9439,161.5596 249.9439,160.1996 C249.9439,158.8396 249.8519,157.5466 249.6719,156.3226 C249.4899,155.0976 249.2039,153.9476 248.8129,152.8716 C248.4219,151.7956 247.8689,150.9426 247.1529,150.3116 C246.4379,149.6816 245.6029,149.3656 244.6489,149.3656 C243.6759,149.3656 242.8329,149.6816 242.1169,150.3116 C241.4009,150.9426 240.8469,151.7956 240.4569,152.8716 C240.0659,153.9476 239.7749,155.0976 239.5839,156.3226 C239.3929,157.5466 239.2979,158.8396 239.2979,160.1996 C239.2979,161.5596 239.3929,162.8526 239.5839,164.0766 C239.7749,165.3016 240.0659,166.4516 240.4569,167.5276 C240.8469,168.6036 241.4009,169.4636 242.1169,170.1066 C242.8329,170.7496 243.6759,171.0706 244.6489,171.0706 M247.8829,171.8496 C246.9479,172.6166 245.8699,172.9996 244.6489,172.9996 C243.4279,172.9996 242.3409,172.6166 241.3869,171.8496 C240.4319,171.0836 239.6939,170.0626 239.1689,168.7886 C238.6439,167.5146 238.2479,166.1546 237.9819,164.7076 C237.7139,163.2606 237.5809,161.7576 237.5809,160.1996 C237.5809,158.6416 237.7139,157.1386 237.9819,155.6916 C238.2479,154.2446 238.6439,152.8906 239.1689,151.6286 C239.6939,150.3676 240.4279,149.3536 241.3729,148.5866 C242.3169,147.8196 243.4089,147.4356 244.6489,147.4356 C245.8699,147.4356 246.9479,147.8196 247.8829,148.5866 C248.8169,149.3536 249.5519,150.3676 250.0869,151.6286 C250.6209,152.8906 251.0209,154.2446 251.2879,155.6916 C251.5549,157.1386 251.6889,158.6416 251.6889,160.1996 C251.6889,161.7336 251.5549,163.2296 251.2879,164.6886 C251.0209,166.1486 250.6209,167.5146 250.0869,168.7886 C249.5519,170.0626 248.8169,171.0836 247.8829,171.8496" id="Fill-52" fill="#FEFEFE" sketch:type="MSShapeGroup"/>
            <path d="M259.758,172.5547 L258.127,172.5547 L258.127,150.7007 L255.065,154.9307 L254.063,153.5577 L258.27,147.8077 L259.758,147.8077 L259.758,172.5547 Z" id="Fill-54" fill="#FEFEFE" sketch:type="MSShapeGroup"/>
            <path d="M270.6914,173 C267.8484,173 265.7024,171.652 264.2524,168.956 L265.3394,167.546 C266.6174,169.896 268.4024,171.071 270.6914,171.071 C272.0654,171.071 273.2044,170.502 274.1104,169.364 C275.0164,168.226 275.4704,166.804 275.4704,165.097 C275.4704,163.242 275.0264,161.77 274.1394,160.682 C273.2514,159.594 272.1124,159.049 270.7194,159.049 C268.9834,159.049 267.4374,159.854 266.0834,161.461 L264.8524,160.793 L264.8524,147.807 L275.8714,147.807 L275.8714,149.736 L266.4844,149.736 L266.4844,159.42 C267.7054,157.887 269.2224,157.12 271.0344,157.12 C272.7324,157.12 274.1724,157.819 275.3554,159.216 C276.5384,160.614 277.1294,162.549 277.1294,165.023 C277.1294,167.422 276.5094,169.352 275.2694,170.811 C274.0284,172.27 272.5034,173 270.6914,173" id="Fill-56" fill="#FEFEFE" sketch:type="MSShapeGroup"/>
            <path d="M22.6304,147.4909 L27.6594,147.4909 C27.6574,147.5239 27.6544,147.5559 27.6544,147.5889 C27.6544,150.8549 27.6544,154.1199 27.6554,157.3859 C27.6554,157.4359 27.6614,157.4859 27.6654,157.5539 L27.9284,157.5539 C35.3034,157.5539 42.6784,157.5539 50.0544,157.5529 C50.1324,157.5529 50.2114,157.5499 50.2894,157.5489 L50.2894,162.5779 C50.2504,162.5759 50.2114,162.5729 50.1724,162.5729 L27.8494,162.5729 L27.6544,162.5729 L27.6544,162.8389 L27.6544,170.9869 C27.6544,171.5359 27.6574,172.0859 27.6594,172.6359 L22.6304,172.6359 C22.6324,172.6029 22.6344,172.5699 22.6344,172.5379 C22.6354,169.2719 22.6354,166.0069 22.6344,162.7409 C22.6344,162.6909 22.6284,162.6399 22.6244,162.5729 L22.3614,162.5729 L0.2354,162.5729 C0.1574,162.5729 0.0784,162.5759 0.0004,162.5779 L0.0004,157.5489 C0.0394,157.5499 0.0784,157.5529 0.1174,157.5529 C7.5584,157.5539 14.9994,157.5539 22.4404,157.5539 L22.6354,157.5539 L22.6354,157.2879 L22.6354,149.1399 C22.6344,148.5899 22.6324,148.0409 22.6304,147.4909" id="Fill-58" fill="#FEFEFE" sketch:type="MSShapeGroup"/>
            <path d="M29.3487,172.6357 L29.3487,165.0017 C29.4277,165.0357 29.4847,165.0577 29.5387,165.0847 C34.5097,167.5687 39.4807,170.0537 44.4507,172.5397 C44.5017,172.5657 44.5457,172.6037 44.5927,172.6357 L29.3487,172.6357 Z" id="Fill-60" fill="#FEFEFE" sketch:type="MSShapeGroup"/>
            <path d="M5.697,172.6357 C5.756,172.5977 5.812,172.5537 5.874,172.5227 C10.815,170.0507 15.756,167.5797 20.697,165.1097 C20.766,165.0757 20.837,165.0457 20.941,164.9977 L20.941,172.6357 L5.697,172.6357 Z" id="Fill-62" fill="#FEFEFE" sketch:type="MSShapeGroup"/>
            <path d="M44.5927,147.4909 C44.5337,147.5289 44.4777,147.5729 44.4157,147.6039 C39.4747,150.0759 34.5337,152.5469 29.5927,155.0169 C29.5237,155.0509 29.4537,155.0809 29.3487,155.1289 L29.3487,147.4909 L44.5927,147.4909 Z" id="Fill-64" fill="#FEFEFE" sketch:type="MSShapeGroup"/>
            <path d="M20.9409,147.4909 L20.9409,155.1249 C20.8619,155.0909 20.8049,155.0689 20.7509,155.0419 C15.7799,152.5579 10.8089,150.0729 5.8389,147.5869 C5.7879,147.5609 5.7439,147.5229 5.6969,147.4909 L20.9409,147.4909 Z" id="Fill-66" fill="#FEFEFE" sketch:type="MSShapeGroup"/>
            <path d="M50.2503,147.4909 C49.3173,147.9609 48.3853,148.4339 47.4503,148.9009 C42.8803,151.1879 38.3093,153.4739 33.7363,155.7549 C33.6083,155.8189 33.4523,155.8549 33.3083,155.8559 C32.1763,155.8639 31.0443,155.8609 29.8983,155.8279 C29.9563,155.7969 30.0143,155.7639 30.0743,155.7339 C35.4893,153.0259 40.9043,150.3179 46.3193,147.6099 C46.3873,147.5749 46.4513,147.5309 46.5183,147.4909 L50.2503,147.4909 Z" id="Fill-68" fill="#FEFEFE" sketch:type="MSShapeGroup"/>
            <path d="M0.0394,172.6357 C0.9724,172.1657 1.9044,171.6927 2.8394,171.2257 C7.4094,168.9387 11.9804,166.6527 16.5534,164.3717 C16.6824,164.3077 16.8384,164.2717 16.9814,164.2707 C18.1134,164.2627 19.2454,164.2657 20.3914,164.2987 C20.3334,164.3297 20.2754,164.3627 20.2154,164.3927 C14.8004,167.1007 9.3854,169.8087 3.9704,172.5177 C3.9014,172.5517 3.8384,172.5957 3.7714,172.6357 L0.0394,172.6357 Z" id="Fill-70" fill="#FEFEFE" sketch:type="MSShapeGroup"/>
            <path d="M0.0001,150.3197 C1.6611,151.1477 3.3231,151.9757 4.9841,152.8057 C6.9261,153.7747 8.8671,154.7457 10.8081,155.7167 C10.8721,155.7487 10.9341,155.7837 10.9941,155.8597 L0.0001,155.8597 L0.0001,150.3197" id="Fill-72" fill="#FEFEFE" sketch:type="MSShapeGroup"/>
            <path d="M50.2896,155.8594 L39.2986,155.8594 C39.2956,155.8484 39.2926,155.8374 39.2886,155.8274 C39.3236,155.8054 39.3576,155.7794 39.3946,155.7614 C43.0076,153.9544 46.6216,152.1474 50.2346,150.3404 C50.2526,150.3314 50.2716,150.3264 50.2896,150.3194 L50.2896,155.8594 Z" id="Fill-74" fill="#FEFEFE" sketch:type="MSShapeGroup"/>
            <path d="M0.0001,164.2672 L10.9911,164.2672 C10.9941,164.2782 10.9971,164.2892 11.0011,164.2992 C10.9661,164.3212 10.9321,164.3472 10.8951,164.3652 C7.2821,166.1722 3.6681,167.9792 0.0551,169.7862 C0.0381,169.7952 0.0181,169.8002 0.0001,169.8072 L0.0001,164.2672" id="Fill-76" fill="#FEFEFE" sketch:type="MSShapeGroup"/>
            <path d="M50.2896,169.8069 C48.6286,168.9789 46.9666,168.1509 45.3056,167.3209 C43.3636,166.3519 41.4226,165.3809 39.4816,164.4099 C39.4176,164.3779 39.3556,164.3429 39.2956,164.2669 L50.2896,164.2669 L50.2896,169.8069 Z" id="Fill-78" fill="#FEFEFE" sketch:type="MSShapeGroup"/>
            <path d="M50.2503,172.6357 C50.1863,172.5947 50.1263,172.5467 50.0583,172.5137 C44.6463,169.8057 39.2343,167.0997 33.8223,164.3927 C33.7643,164.3637 33.7063,164.3337 33.6483,164.2657 L33.8433,164.2657 C34.9103,164.2657 35.9773,164.2617 37.0443,164.2707 C37.1943,164.2717 37.3573,164.3087 37.4903,164.3747 C41.6813,166.4637 45.8693,168.5587 50.0583,170.6517 C50.1323,170.6897 50.2123,170.7177 50.2893,170.7497 C50.2893,171.3387 50.2903,171.9287 50.2883,172.5177 C50.2873,172.5567 50.2633,172.5967 50.2503,172.6357" id="Fill-80" fill="#FEFEFE" sketch:type="MSShapeGroup"/>
            <path d="M0.0394,147.4909 C0.1034,147.5319 0.1634,147.5799 0.2314,147.6139 C5.6434,150.3209 11.0554,153.0269 16.4674,155.7339 C16.5254,155.7629 16.5834,155.7929 16.6414,155.8609 L16.4464,155.8609 C15.3794,155.8609 14.3124,155.8649 13.2454,155.8559 C13.0954,155.8549 12.9324,155.8179 12.7994,155.7519 C8.6084,153.6629 4.4204,151.5679 0.2314,149.4749 C0.1574,149.4369 0.0774,149.4089 0.0004,149.3769 C0.0004,148.7869 -0.0006,148.1969 0.0014,147.6069 C0.0024,147.5679 0.0264,147.5299 0.0394,147.4909" id="Fill-82" fill="#FEFEFE" sketch:type="MSShapeGroup"/>
        </g>
    </g>
</svg>